<svg xmlns="http://www.w3.org/2000/svg">
  <symbol id="icon-grid" viewBox="0 0 24 24">
    <rect x="3" y="3" width="7" height="7" rx="2"/><rect x="14" y="3" width="7" height="7" rx="2"/>
    <rect x="3" y="14" width="7" height="7" rx="2"/><rect x="14" y="14" width="7" height="7" rx="2"/>
  </symbol>
  <symbol id="icon-headset" viewBox="0 0 24 24">
    <path d="M4 13v-2a8 8 0 0 1 16 0v2"/><path d="M4 13h3v6H5a1 1 0 0 1-1-1v-5Zm16 0h-3v6h2a1 1 0 0 0 1-1v-5Z"/>
    <path d="M17 19c0 1.1-.9 2-2 2h-2"/>
  </symbol>
  <symbol id="icon-qa" viewBox="0 0 24 24">
    <circle cx="10" cy="10" r="6"/><path d="m14.5 14.5 5 5M7.5 10l1.7 1.7L12.8 8"/>
  </symbol>
  <symbol id="icon-briefcase" viewBox="0 0 24 24">
    <rect x="3" y="7" width="18" height="13" rx="2"/><path d="M8 7V5a2 2 0 0 1 2-2h4a2 2 0 0 1 2 2v2M3 12h18M10 12v2h4v-2"/>
  </symbol>
  <symbol id="icon-order" viewBox="0 0 24 24">
    <path d="M6 3h12v18l-3-2-3 2-3-2-3 2V3Z"/><path d="M9 8h6M9 12h6M9 16h3"/>
  </symbol>
  <symbol id="icon-fio" viewBox="0 0 24 24">
    <circle cx="12" cy="12" r="8"/><path d="M16 12v3a2 2 0 0 0 4 0v-3a8 8 0 1 0-3.4 6.5"/><circle cx="12" cy="12" r="3"/>
  </symbol>
  <symbol id="icon-status" viewBox="0 0 24 24">
    <rect x="3" y="4" width="18" height="6" rx="2"/><rect x="3" y="14" width="18" height="6" rx="2"/>
    <path d="M7 7h.01M7 17h.01M11 7h6M11 17h6"/>
  </symbol>
  <symbol id="icon-image" viewBox="0 0 24 24">
    <rect x="3" y="3" width="18" height="18" rx="3"/><circle cx="9" cy="9" r="2"/><path d="m4 17 5-5 4 4 2-2 5 5"/>
  </symbol>
  <symbol id="icon-book" viewBox="0 0 24 24">
    <path d="M4 5a3 3 0 0 1 3-2h5v17H7a3 3 0 0 0-3 2V5Zm16 0a3 3 0 0 0-3-2h-5v17h5a3 3 0 0 1 3 2V5Z"/>
  </symbol>
  <symbol id="icon-calendar" viewBox="0 0 24 24">
    <rect x="3" y="5" width="18" height="16" rx="2"/><path d="M7 3v4m10-4v4M3 10h18M8 14h3m2 0h3m-8 3h3"/>
  </symbol>
  <symbol id="icon-game" viewBox="0 0 24 24">
    <path d="M8 8h8a5 5 0 0 1 4.7 6.7l-1 2.7a2 2 0 0 1-3.2.8L14 16h-4l-2.5 2.2a2 2 0 0 1-3.2-.8l-1-2.7A5 5 0 0 1 8 8Z"/>
    <path d="M8 11v4m-2-2h4m6-1h.01m2 2h.01"/>
  </symbol>
  <symbol id="icon-chart" viewBox="0 0 24 24">
    <path d="M4 20V10h4v10m4 0V4h4v16m4 0V7h-4"/><path d="M2 20h20"/>
  </symbol>
  <symbol id="icon-analytics" viewBox="0 0 24 24">
    <path d="M3 18 9 12l4 3 8-9"/><path d="M16 6h5v5"/><circle cx="6" cy="18" r="2"/>
  </symbol>
  <symbol id="icon-gauge" viewBox="0 0 24 24">
    <path d="M5 19a9 9 0 1 1 14 0"/><path d="m12 12 5-4"/><circle cx="12" cy="12" r="2"/>
  </symbol>
  <symbol id="icon-download" viewBox="0 0 24 24">
    <path d="M12 3v12m-5-5 5 5 5-5"/><path d="M4 19v2h16v-2"/>
  </symbol>
  <symbol id="icon-build" viewBox="0 0 24 24">
    <path d="m14 5 5 5M16 3l5 5-9 9-5 1 1-5 8-10Z"/><path d="M4 20h16"/>
  </symbol>
  <symbol id="icon-device" viewBox="0 0 24 24">
    <rect x="5" y="3" width="14" height="18" rx="2"/><path d="M9 6h6M11 18h2"/>
  </symbol>
  <symbol id="icon-checklist" viewBox="0 0 24 24">
    <rect x="4" y="3" width="16" height="18" rx="2"/><path d="m8 9 1.5 1.5L12 8m2 2h3m-9 5 1.5 1.5L12 14m2 2h3"/>
  </symbol>
  <symbol id="icon-browser" viewBox="0 0 24 24">
    <rect x="3" y="4" width="18" height="16" rx="2"/><path d="M3 9h18M7 6.5h.01m3 0h.01"/>
  </symbol>
  <symbol id="icon-bug" viewBox="0 0 24 24">
    <path d="M8 7h8l2 3v5a6 6 0 0 1-12 0v-5l2-3Z"/><path d="M9 7V4m6 3V4M6 11H3m3 5H3m15-5h3m-3 5h3M9 13h6"/>
  </symbol>
  <symbol id="icon-logs" viewBox="0 0 24 24">
    <path d="M6 3h8l4 4v14H6V3Z"/><path d="M14 3v5h5M9 12h6m-6 4h6"/>
  </symbol>
  <symbol id="icon-inbox" viewBox="0 0 24 24">
    <path d="M4 5h16v14H4V5Z"/><path d="m4 13 4-4 4 4 4-4 4 4M8 19h8"/>
  </symbol>
  <symbol id="icon-ticket" viewBox="0 0 24 24">
    <path d="M4 7h16v4a2 2 0 0 0 0 4v4H4v-4a2 2 0 0 0 0-4V7Z"/><path d="M12 9v2m0 2v2m0 2v.01"/>
  </symbol>
  <symbol id="icon-user-search" viewBox="0 0 24 24">
    <circle cx="10" cy="8" r="4"/><path d="M3 20a7 7 0 0 1 12-5"/><circle cx="17" cy="17" r="3"/><path d="m19.5 19.5 2 2"/>
  </symbol>
  <symbol id="icon-tools" viewBox="0 0 24 24">
    <path d="M14 6a4 4 0 0 0-5 5L3 17l4 4 6-6a4 4 0 0 0 5-5l-3 3-4-4 3-3Z"/>
  </symbol>
  <symbol id="icon-wallet" viewBox="0 0 24 24">
    <rect x="3" y="5" width="18" height="15" rx="3"/><path d="M3 9h18M15 13h6v4h-6a2 2 0 0 1 0-4Z"/>
  </symbol>
  <symbol id="icon-help" viewBox="0 0 24 24">
    <circle cx="12" cy="12" r="9"/><path d="M9.5 9a2.7 2.7 0 1 1 4.3 2.2c-1 .7-1.8 1.2-1.8 2.8M12 18h.01"/>
  </symbol>
</svg>
